#!OML:ASF H:\MichaelJackson\Top Level 1\Subject 1\Session 1\male.ASF
:FULLY-SPECIFIED
:DEGREES
223
root -14.4813 16.274 -33.2119 2.5715 32.7792 -15.2886
lowerback -0.778467 5.8211 3.6883
upperback -5.25324 8.26541 5.69118
thorax -5.38605 4.1687 3.53943
lowerneck -12.3986 -4.72345 6.3552
upperneck 2.20805 -6.89969 -5.74071
head 2.47413 -3.57898 -3.44093
rclavicle -1.18494e-015 -2.70347e-014
rhumerus -49.8433 19.3638 -57.664
rradius 103.437
rwrist -9.98405
rhand 52.1223 -18.3782
rfingers 7.12502
rthumb 71.2748 -9.54705
lclavicle -1.18494e-015 -2.70347e-014
lhumerus -64.9842 -40.5033 118.746
lradius 79.2947
lwrist 26.3278
lhand 12.0195 16.7736
lfingers 7.12502
lthumb 37.0392 42.828
rfemur -15.6709 -14.4968 19.5014
rtibia 35.9214
rfoot -18.9159 -12.8241
rtoes -22.5923
lfemur -47.4386 39.4601 -20.1999
ltibia 61.4344
lfoot -25.8848 21.1931
ltoes 10.5492
224
root -14.4262 16.2776 -33.1763 1.2833 36.345 -16.0618
lowerback -0.755585 4.87775 3.96934
upperback -5.34818 7.01885 5.70317
thorax -5.41179 3.53453 3.44325
lowerneck -12.4232 -4.93796 5.93779
upperneck 2.84407 -7.15064 -5.08723
head 2.71111 -3.67806 -3.17569
rclavicle 2.19607e-014 1.39149e-014
rhumerus -50.7417 16.4025 -57.6757
rradius 102.638
rwrist -9.68505
rhand 47.6948 -17.349
rfingers 7.12502
rthumb 68.3752 -17.6619
lclavicle 2.19607e-014 1.39149e-014
lhumerus -64.8552 -39.6168 117.956
lradius 80.0472
lwrist 26.2555
lhand 11.1644 17.5464
lfingers 7.12502
lthumb 36.2299 43.8061
rfemur -14.3546 -16.1078 19.4277
rtibia 36.6513
rfoot -16.9335 -13.8972
rtoes -28.8955
lfemur -46.3385 37.4978 -19.6297
ltibia 60.568
lfoot -26.0197 20.4986
ltoes 9.20024
225
root -14.3422 16.2756 -33.1517 -0.0605438 38.9107 -17.0219
lowerback -0.836131 4.25225 4.70259
upperback -5.64783 6.20833 5.53462
thorax -5.55771 3.08896 2.89471
lowerneck -11.4087 -5.12022 5.91489
upperneck 3.17945 -7.38139 -4.37881
head 2.64327 -3.75523 -2.90317
rclavicle 6.89224e-015 2.06736e-014
rhumerus -52.1579 13.4326 -57.8259
rradius 101.72
rwrist -9.4375
rhand 45.8629 -15.397
rfingers 7.12502
rthumb 67.0384 -18.7668
lclavicle 6.89224e-015 2.06736e-014
lhumerus -65.4502 -38.5475 117.332
lradius 80.7545
lwrist 25.7569
lhand 10.6368 18.1992
lfingers 7.12502
lthumb 35.73 44.5815
rfemur -13.5068 -17.7182 19.1316
rtibia 37.8811
rfoot -14.5979 -13.2266
rtoes -35.3141
lfemur -44.7962 35.7515 -18.4313
ltibia 59.94
lfoot -26.9878 18.6507
ltoes 11.0197
226
root -14.2635 16.264 -33.1337 -1.59922 41.3236 -18.2748
lowerback -0.775657 3.66806 5.62009
upperback -5.77396 5.46001 5.43318
thorax -5.61956 2.66672 2.30624
lowerneck -11.3256 -5.25463 5.58853
upperneck 3.80142 -7.55656 -3.58307
head 2.86787 -3.80626 -2.60393
rclavicle 1.4064e-014 5.36719e-015
rhumerus -52.9368 10.6895 -57.5343
rradius 100.751
rwrist -9.69164
rhand 43.7714 -14.1456
rfingers 7.12502
rthumb 65.4379 -20.5761
lclavicle 1.4064e-014 5.36719e-015
lhumerus -65.515 -37.5635 116.462
lradius 81.3766
lwrist 25.2981
lhand 9.66183 18.7017
lfingers 7.12502
lthumb 34.8055 45.3029
rfemur -13.0699 -19.2074 18.831
rtibia 39.7077
rfoot -11.686 -11.8161
rtoes -41.6552
lfemur -43.3117 33.8716 -16.8448
ltibia 59.5509
lfoot -28.5 15.8954
ltoes 15.7948
227
root -14.1873 16.2527 -33.1278 -3.37811 43.6436 -19.7064
lowerback -0.505095 3.08107 6.72511
upperback -5.8399 4.73034 5.29958
thorax -5.75135 2.24033 1.57029
lowerneck -11.3104 -5.33329 5.31079
upperneck 4.29975 -7.67543 -2.77687
head 3.06868 -3.82723 -2.30899
rclavicle -9.17267e-014 7.25564e-015
rhumerus -53.2138 8.36723 -57.1047
rradius 99.5335
rwrist -10.2084
rhand 37.7106 -13.5411
rfingers 7.12502
rthumb 60.4717 -26.8164
lclavicle -9.17267e-014 7.25564e-015
lhumerus -65.3788 -36.5208 115.37
lradius 81.9185
lwrist 24.6956
lhand 9.01597 19.0491
lfingers 7.12502
lthumb 34.1924 45.7899
rfemur -12.8973 -20.5611 18.3153
rtibia 42.111
rfoot -8.82608 -9.04265
rtoes -46.1528
lfemur -41.8113 31.7536 -15.1383
ltibia 59.3058
lfoot -30.0085 12.4058
ltoes 22.6331
